<?xml version="1.0" encoding="UTF-8" standalone="no"?>
<!DOCTYPE svg PUBLIC "-//W3C//DTD SVG 1.1//EN"
 "http://www.w3.org/Graphics/SVG/1.1/DTD/svg11.dtd">
<!-- Generated by graphviz version 2.50.0 (20211204.2007)
 -->
<!-- Title: G Pages: 1 -->
<svg width="359pt" height="99pt"
 viewBox="0.00 0.00 359.00 99.00" xmlns="http://www.w3.org/2000/svg" xmlns:xlink="http://www.w3.org/1999/xlink">
<g id="graph0" class="graph" transform="scale(1 1) rotate(0) translate(4 95)">
<title>G</title>
<polygon fill="white" stroke="transparent" points="-4,4 -4,-95 355,-95 355,4 -4,4"/>
<g id="clust1" class="cluster">
<title>cluster1</title>
<polygon fill="none" stroke="black" points="8,-8 8,-83 95,-83 95,-8 8,-8"/>
<text text-anchor="middle" x="51.5" y="-67.8" font-family="Times,serif" font-size="14.00">1</text>
</g>
<g id="clust2" class="cluster">
<title>cluster2</title>
<polygon fill="none" stroke="black" points="131,-8 131,-83 219,-83 219,-8 131,-8"/>
<text text-anchor="middle" x="175" y="-67.8" font-family="Times,serif" font-size="14.00">2</text>
</g>
<g id="clust3" class="cluster">
<title>cluster3</title>
<polygon fill="none" stroke="black" points="255,-8 255,-83 343,-83 343,-8 255,-8"/>
<text text-anchor="middle" x="299" y="-67.8" font-family="Times,serif" font-size="14.00">3</text>
</g>
<!-- Node0x6000006a5160 -->
<g id="node1" class="node">
<title>Node0x6000006a5160</title>
<polygon fill="none" stroke="black" points="8,-8.5 8,-59.5 95,-59.5 95,-8.5 8,-8.5"/>
<text text-anchor="middle" x="51.5" y="-49.1" font-family="Times,serif" font-size="8.00">item: 13</text>
<polyline fill="none" stroke="black" points="8,-42.5 95,-42.5 "/>
<text text-anchor="middle" x="51.5" y="-32.1" font-family="Times,serif" font-size="8.00">next: 0x6000006a5120</text>
<polyline fill="none" stroke="black" points="8,-25.5 95,-25.5 "/>
<text text-anchor="middle" x="51.5" y="-15.1" font-family="Times,serif" font-size="8.00">prev: 0x0</text>
</g>
<!-- Node0x6000006a5120 -->
<g id="node2" class="node">
<title>Node0x6000006a5120</title>
<polygon fill="none" stroke="black" points="131,-8.5 131,-59.5 219,-59.5 219,-8.5 131,-8.5"/>
<text text-anchor="middle" x="175" y="-49.1" font-family="Times,serif" font-size="8.00">item: 10</text>
<polyline fill="none" stroke="black" points="131,-42.5 219,-42.5 "/>
<text text-anchor="middle" x="175" y="-32.1" font-family="Times,serif" font-size="8.00">next: 0x6000006a5140</text>
<polyline fill="none" stroke="black" points="131,-25.5 219,-25.5 "/>
<text text-anchor="middle" x="175" y="-15.1" font-family="Times,serif" font-size="8.00">prev: 0x6000006a5160</text>
</g>
<!-- Node0x6000006a5160&#45;&gt;Node0x6000006a5120 -->
<g id="edge1" class="edge">
<title>Node0x6000006a5160:n&#45;&gt;Node0x6000006a5120:n</title>
<path fill="none" stroke="red" d="M95,-34C107,-34 112.25,-34 120.88,-34"/>
<polygon fill="red" stroke="red" points="121,-37.5 131,-34 121,-30.5 121,-37.5"/>
</g>
<!-- Node0x6000006a5140 -->
<g id="node3" class="node">
<title>Node0x6000006a5140</title>
<polygon fill="none" stroke="black" points="255,-8.5 255,-59.5 343,-59.5 343,-8.5 255,-8.5"/>
<text text-anchor="middle" x="299" y="-49.1" font-family="Times,serif" font-size="8.00">item: 20</text>
<polyline fill="none" stroke="black" points="255,-42.5 343,-42.5 "/>
<text text-anchor="middle" x="299" y="-32.1" font-family="Times,serif" font-size="8.00">next: 0x0</text>
<polyline fill="none" stroke="black" points="255,-25.5 343,-25.5 "/>
<text text-anchor="middle" x="299" y="-15.1" font-family="Times,serif" font-size="8.00">prev: 0x6000006a5120</text>
</g>
<!-- Node0x6000006a5120&#45;&gt;Node0x6000006a5140 -->
<g id="edge2" class="edge">
<title>Node0x6000006a5120:n&#45;&gt;Node0x6000006a5140:n</title>
<path fill="none" stroke="red" d="M219,-34C231,-34 236.25,-34 244.88,-34"/>
<polygon fill="red" stroke="red" points="245,-37.5 255,-34 245,-30.5 245,-37.5"/>
</g>
</g>
</svg>
